<svg xmlns="http://www.w3.org/2000/svg" xmlns:xlink="http://www.w3.org/1999/xlink" width="40" zoomAndPan="magnify" viewBox="0 0 30 30.000001" height="40" preserveAspectRatio="xMidYMid meet" version="1.0"><defs><clipPath id="c516827543"><path d="M 0.484375 0 L 29.515625 0 L 29.515625 29.03125 L 0.484375 29.03125 Z M 0.484375 0 " clip-rule="nonzero"/></clipPath><clipPath id="469afb56da"><path d="M 12.277344 10.160156 L 20.988281 10.160156 L 20.988281 18.871094 L 12.277344 18.871094 Z M 12.277344 10.160156 " clip-rule="nonzero"/></clipPath><clipPath id="490257a06d"><path d="M 16.632812 10.160156 C 14.226562 10.160156 12.277344 12.109375 12.277344 14.515625 C 12.277344 16.921875 14.226562 18.871094 16.632812 18.871094 C 19.039062 18.871094 20.988281 16.921875 20.988281 14.515625 C 20.988281 12.109375 19.039062 10.160156 16.632812 10.160156 Z M 16.632812 10.160156 " clip-rule="nonzero"/></clipPath><clipPath id="f74e3ba178"><path d="M 0.277344 0.160156 L 8.988281 0.160156 L 8.988281 8.871094 L 0.277344 8.871094 Z M 0.277344 0.160156 " clip-rule="nonzero"/></clipPath><clipPath id="24414ef6c7"><path d="M 4.632812 0.160156 C 2.226562 0.160156 0.277344 2.109375 0.277344 4.515625 C 0.277344 6.921875 2.226562 8.871094 4.632812 8.871094 C 7.039062 8.871094 8.988281 6.921875 8.988281 4.515625 C 8.988281 2.109375 7.039062 0.160156 4.632812 0.160156 Z M 4.632812 0.160156 " clip-rule="nonzero"/></clipPath><clipPath id="11cb6360be"><rect x="0" width="9" y="0" height="9"/></clipPath><clipPath id="21efb237e0"><path d="M 7 0 L 28.101562 0 L 28.101562 29 L 7 29 Z M 7 0 " clip-rule="nonzero"/></clipPath><clipPath id="b118c47587"><path d="M 20 0 L 28.101562 0 L 28.101562 8 L 20 8 Z M 20 0 " clip-rule="nonzero"/></clipPath><clipPath id="82069f04d4"><path d="M 1.972656 4 L 15 4 L 15 12 L 1.972656 12 Z M 1.972656 4 " clip-rule="nonzero"/></clipPath></defs><g clip-path="url(#c516827543)"><path fill="#ffffff" d="M 0.484375 0 L 29.515625 0 L 29.515625 29.03125 L 0.484375 29.03125 Z M 0.484375 0 " fill-opacity="1" fill-rule="nonzero"/><path fill="#ffffff" d="M 0.484375 0 L 29.515625 0 L 29.515625 29.03125 L 0.484375 29.03125 Z M 0.484375 0 " fill-opacity="1" fill-rule="nonzero"/></g><g clip-path="url(#469afb56da)"><g clip-path="url(#490257a06d)"><g transform="matrix(1, 0, 0, 1, 12, 10)"><g clip-path="url(#11cb6360be)"><g clip-path="url(#f74e3ba178)"><g clip-path="url(#24414ef6c7)"><path fill="#ffff00" d="M 0.277344 0.160156 L 8.988281 0.160156 L 8.988281 8.871094 L 0.277344 8.871094 Z M 0.277344 0.160156 " fill-opacity="1" fill-rule="nonzero"/></g></g></g></g></g></g><path fill="#221f1f" d="M 10.730469 0.75 L 10.730469 8.078125 L 18.003906 8.078125 " fill-opacity="0.35" fill-rule="nonzero"/><g clip-path="url(#21efb237e0)"><path fill="#107c42" d="M 20.902344 0.0859375 L 9.023438 0.0859375 C 7.984375 0.0859375 7.09375 0.972656 7.09375 2.007812 L 7.09375 27.023438 C 7.09375 28.058594 7.984375 28.945312 9.023438 28.945312 L 26.171875 28.945312 C 27.210938 28.945312 28.101562 28.058594 28.101562 27.023438 L 28.101562 7.335938 Z M 20.902344 0.0859375 " fill-opacity="1" fill-rule="nonzero"/></g><g clip-path="url(#b118c47587)"><path fill="#221f1f" d="M 20.902344 0.0859375 L 20.902344 7.335938 L 28.101562 7.335938 " fill-opacity="0.35" fill-rule="nonzero"/></g><path fill="#f1f2f2" d="M 13.402344 11.1875 L 3.160156 11.1875 C 2.566406 11.1875 2.046875 10.667969 2.046875 10.074219 L 2.046875 5.414062 C 2.046875 4.820312 2.566406 4.304688 3.160156 4.304688 L 13.328125 4.304688 C 13.921875 4.304688 14.441406 4.820312 14.441406 5.414062 L 14.441406 10.148438 C 14.515625 10.742188 13.996094 11.1875 13.402344 11.1875 Z M 13.402344 11.1875 " fill-opacity="1" fill-rule="nonzero"/><g clip-path="url(#82069f04d4)"><path fill="#107c42" d="M 13.402344 11.332031 L 3.160156 11.332031 C 2.492188 11.332031 1.972656 10.816406 1.972656 10.148438 L 1.972656 5.414062 C 1.972656 4.746094 2.492188 4.230469 3.160156 4.230469 L 13.328125 4.230469 C 13.996094 4.230469 14.515625 4.746094 14.515625 5.414062 L 14.515625 10.148438 C 14.589844 10.742188 13.996094 11.332031 13.402344 11.332031 Z M 3.160156 4.378906 C 2.566406 4.378906 2.121094 4.820312 2.121094 5.414062 L 2.121094 10.148438 C 2.121094 10.742188 2.566406 11.1875 3.160156 11.1875 L 13.328125 11.1875 C 13.921875 11.1875 14.367188 10.742188 14.367188 10.148438 L 14.367188 5.414062 C 14.367188 4.820312 13.921875 4.378906 13.328125 4.378906 Z M 3.160156 4.378906 " fill-opacity="1" fill-rule="nonzero"/></g><path fill="#107c42" d="M 6.574219 9.261719 L 5.980469 8.375 L 5.460938 9.261719 L 4.570312 9.261719 L 5.535156 7.707031 L 4.570312 6.226562 L 5.386719 6.226562 L 5.980469 7.117188 L 6.5 6.226562 L 7.316406 6.226562 L 6.351562 7.707031 L 7.316406 9.1875 L 6.574219 9.1875 Z M 6.574219 9.261719 " fill-opacity="1" fill-rule="nonzero"/><path fill="#107c42" d="M 8.503906 8.667969 L 9.46875 8.667969 L 9.46875 9.261719 L 7.761719 9.261719 L 7.761719 6.300781 L 8.503906 6.300781 Z M 8.503906 8.667969 " fill-opacity="1" fill-rule="nonzero"/><path fill="#107c42" d="M 10.285156 9.1875 C 10.136719 9.113281 9.988281 9.039062 9.839844 8.890625 C 9.765625 8.742188 9.691406 8.597656 9.691406 8.375 L 10.433594 8.375 C 10.433594 8.449219 10.507812 8.597656 10.582031 8.597656 C 10.65625 8.667969 10.730469 8.667969 10.804688 8.667969 C 10.878906 8.667969 11.027344 8.667969 11.027344 8.597656 C 11.101562 8.523438 11.101562 8.449219 11.101562 8.375 C 11.101562 8.300781 11.101562 8.226562 11.027344 8.226562 C 10.953125 8.152344 10.953125 8.152344 10.878906 8.078125 C 10.804688 8.078125 10.730469 8.003906 10.582031 8.003906 C 10.359375 7.929688 10.210938 7.855469 10.136719 7.855469 C 9.988281 7.78125 9.914062 7.707031 9.839844 7.558594 C 9.765625 7.410156 9.691406 7.265625 9.691406 7.117188 C 9.691406 6.820312 9.765625 6.597656 9.988281 6.449219 C 10.210938 6.300781 10.433594 6.226562 10.804688 6.226562 C 11.101562 6.226562 11.398438 6.300781 11.621094 6.449219 C 11.84375 6.597656 11.917969 6.820312 11.917969 7.117188 L 11.101562 7.117188 C 11.101562 7.042969 11.027344 6.96875 11.027344 6.894531 C 10.953125 6.820312 10.878906 6.820312 10.804688 6.820312 C 10.730469 6.820312 10.65625 6.820312 10.582031 6.894531 C 10.507812 6.96875 10.507812 7.042969 10.507812 7.117188 C 10.507812 7.191406 10.582031 7.265625 10.65625 7.335938 C 10.730469 7.410156 10.878906 7.484375 11.101562 7.484375 C 11.324219 7.558594 11.472656 7.632812 11.546875 7.707031 C 11.695312 7.78125 11.769531 7.855469 11.84375 8.003906 C 11.917969 8.152344 11.992188 8.300781 11.992188 8.449219 C 11.992188 8.597656 11.917969 8.742188 11.84375 8.890625 C 11.769531 9.039062 11.621094 9.113281 11.472656 9.1875 C 11.324219 9.261719 11.101562 9.335938 10.878906 9.335938 C 10.65625 9.261719 10.507812 9.261719 10.285156 9.1875 Z M 10.285156 9.1875 " fill-opacity="1" fill-rule="nonzero"/><path fill="#ffffff" d="M 10.582031 15.183594 L 16.964844 15.183594 L 16.964844 16.957031 L 10.582031 16.957031 Z M 10.582031 15.183594 " fill-opacity="1" fill-rule="nonzero"/><path fill="#ffffff" d="M 10.582031 18.882812 L 16.964844 18.882812 L 16.964844 20.660156 L 10.582031 20.660156 Z M 10.582031 18.882812 " fill-opacity="1" fill-rule="nonzero"/><path fill="#ffffff" d="M 10.582031 22.65625 L 16.964844 22.65625 L 16.964844 24.433594 L 10.582031 24.433594 Z M 10.582031 22.65625 " fill-opacity="1" fill-rule="nonzero"/><path fill="#ffffff" d="M 18.226562 15.183594 L 24.613281 15.183594 L 24.613281 16.957031 L 18.226562 16.957031 Z M 18.226562 15.183594 " fill-opacity="1" fill-rule="nonzero"/><path fill="#ffffff" d="M 18.226562 18.882812 L 24.613281 18.882812 L 24.613281 20.660156 L 18.226562 20.660156 Z M 18.226562 18.882812 " fill-opacity="1" fill-rule="nonzero"/><path fill="#ffffff" d="M 18.226562 22.65625 L 24.613281 22.65625 L 24.613281 24.433594 L 18.226562 24.433594 Z M 18.226562 22.65625 " fill-opacity="1" fill-rule="nonzero"/></svg>